<?xml version="1.0" encoding="UTF-8" standalone="no"?>
<svg
   xmlns:dc="http://purl.org/dc/elements/1.1/"
   xmlns:cc="http://creativecommons.org/ns#"
   xmlns:rdf="http://www.w3.org/1999/02/22-rdf-syntax-ns#"
   xmlns:svg="http://www.w3.org/2000/svg"
   xmlns="http://www.w3.org/2000/svg"
   xmlns:sodipodi="http://sodipodi.sourceforge.net/DTD/sodipodi-0.dtd"
   xmlns:inkscape="http://www.inkscape.org/namespaces/inkscape"
   width="100mm"
   height="100mm"
   viewBox="0 0 100 100"
   version="1.1"
   id="svg8"
   inkscape:version="1.0.2-2 (e86c870879, 2021-01-15)"
   sodipodi:docname="triangle-tile10.svg">
  <defs
     id="defs2" />
  <sodipodi:namedview
     id="base"
     pagecolor="#ffffff"
     bordercolor="#666666"
     borderopacity="1.0"
     inkscape:pageopacity="0.0"
     inkscape:pageshadow="2"
     inkscape:zoom="1.979899"
     inkscape:cx="84.423854"
     inkscape:cy="212.1933"
     inkscape:document-units="mm"
     inkscape:current-layer="layer12"
     inkscape:document-rotation="0"
     showgrid="false"
     inkscape:snap-midpoints="true"
     inkscape:snap-intersection-paths="true"
     showguides="true"
     inkscape:guide-bbox="true"
     inkscape:window-width="1920"
     inkscape:window-height="1027"
     inkscape:window-x="1912"
     inkscape:window-y="-8"
     inkscape:window-maximized="1" />
  <metadata
     id="metadata5">
    <rdf:RDF>
      <cc:Work
         rdf:about="">
        <dc:format>image/svg+xml</dc:format>
        <dc:type
           rdf:resource="http://purl.org/dc/dcmitype/StillImage" />
        <dc:title />
      </cc:Work>
    </rdf:RDF>
  </metadata>
  <g
     inkscape:groupmode="layer"
     id="layer12"
     inkscape:label="Design 10"
     style="display:inline">
    <g
       id="g120">
      <path
         style="fill:#000000;fill-opacity:1;stroke:#000000;stroke-width:0.264583px;stroke-linecap:butt;stroke-linejoin:miter;stroke-opacity:1"
         d="m 0,100 h 25 c 0,-4.146332 -8.067572,-2.460432 -4.400298,-5.883931 3.667274,-3.423499 -1.304008,-0.05473 -1.889881,-6.614584 -0.585873,-6.559857 16.113642,-11.104846 10.96131,-2.645833 -5.152332,8.459013 2.968707,12.696194 6.236605,7.748514 C 39.175634,87.656486 50,95.839026 50,100 H 75 C 75,94.251407 68.575672,89.225487 68.413691,93.78534 68.251709,98.345193 50.470517,96.697644 59.389509,93.123883 68.3085,89.550122 65.141419,77.694307 61.043152,84.666666 56.944885,91.639025 48.05256,89.383391 44.034225,86.367558 40.01589,83.351725 44.00273,70.650052 40.63244,67.846725 37.26215,65.043398 34.895468,63.526787 31.938986,68.791666 28.982504,74.056545 11.988725,67.185267 20.599702,63.122023 29.210679,59.058779 19.512569,40.787672 17.953869,44.979166 c -1.5587,4.191494 -11.2671157,3.32692 -7.559524,0 3.707592,-3.32692 7.536112,-9.323583 2.267857,-7.559524 C 7.3939466,39.183701 4.5280466,33.819215 9.4494045,31.183035 14.370762,28.546855 3.3447925,25 0,25 v 25 c 4.7941751,10e-7 3.0057205,9.445193 8.6934523,5.562499 5.6877317,-3.882694 8.3525157,13.624026 2.2678567,9.449403 C 4.8766502,60.837279 5.3373181,75 0,75 v 25"
         id="path1501"
         sodipodi:nodetypes="cczzzzcczzzzzzzzzzzcczzcc" />
    </g>
    <path
       style="fill:#000000;fill-opacity:1;stroke:#000000;stroke-width:0.264583px;stroke-linecap:butt;stroke-linejoin:miter;stroke-opacity:1"
       d="M 75,75 C 73.080022,76.919978 61.320338,80.814945 58.208333,75 55.096328,69.185055 42.376853,66.990285 36.096725,61.421131 29.816597,55.851977 30.603322,48.265698 25,46.113094 19.396678,43.96049 20.518933,29.481067 25,25 l 50,50"
       id="path1503"
       sodipodi:nodetypes="czzzcc" />
  </g>
</svg>
