<?xml version="1.0" encoding="UTF-8" standalone="no"?>
<svg
   xmlns:dc="http://purl.org/dc/elements/1.1/"
   xmlns:cc="http://creativecommons.org/ns#"
   xmlns:rdf="http://www.w3.org/1999/02/22-rdf-syntax-ns#"
   xmlns:svg="http://www.w3.org/2000/svg"
   xmlns="http://www.w3.org/2000/svg"
   xmlns:sodipodi="http://sodipodi.sourceforge.net/DTD/sodipodi-0.dtd"
   xmlns:inkscape="http://www.inkscape.org/namespaces/inkscape"
   width="100mm"
   height="100mm"
   viewBox="0 0 100 100"
   version="1.1"
   id="svg8"
   inkscape:version="1.0.2-2 (e86c870879, 2021-01-15)"
   sodipodi:docname="triangle-tile2.svg">
  <defs
     id="defs2" />
  <sodipodi:namedview
     id="base"
     pagecolor="#ffffff"
     bordercolor="#666666"
     borderopacity="1.0"
     inkscape:pageopacity="0.0"
     inkscape:pageshadow="2"
     inkscape:zoom="1.979899"
     inkscape:cx="84.423854"
     inkscape:cy="212.1933"
     inkscape:document-units="mm"
     inkscape:current-layer="layer4"
     inkscape:document-rotation="0"
     showgrid="false"
     inkscape:snap-midpoints="true"
     inkscape:snap-intersection-paths="true"
     showguides="true"
     inkscape:guide-bbox="true"
     inkscape:window-width="1920"
     inkscape:window-height="1027"
     inkscape:window-x="1912"
     inkscape:window-y="-8"
     inkscape:window-maximized="1" />
  <metadata
     id="metadata5">
    <rdf:RDF>
      <cc:Work
         rdf:about="">
        <dc:format>image/svg+xml</dc:format>
        <dc:type
           rdf:resource="http://purl.org/dc/dcmitype/StillImage" />
        <dc:title />
      </cc:Work>
    </rdf:RDF>
  </metadata>
  <g
     inkscape:groupmode="layer"
     id="layer4"
     inkscape:label="Design 2"
     style="display:inline">
    <g
       id="g86">
      <g
         id="g90">
        <path
           style="fill:#000000;fill-opacity:1;stroke:#000000;stroke-width:0.264583px;stroke-linecap:butt;stroke-linejoin:miter;stroke-opacity:1"
           d="m 25,100 c 0,-4.953633 7.560174,-5.623226 7.316965,-9.474705 -0.243209,-3.851479 -24.7135141,3.667033 -17.623141,-2.693079 7.090373,-6.360112 -0.38079,-16.909085 4.017964,-21.634628 4.398755,-4.725543 20.991082,-6.630362 17.573927,-1.374672 -3.417155,5.25569 12.956559,7.623519 10.33146,16.233643 -2.6251,8.610124 10.930462,-5.238437 14.992943,4.366058 2.5083,3.573106 19.881856,2.147455 8.88244,-5.480653 -1.093769,-0.75853 -6.841571,0.584831 -8.20824,-1.414975 -1.366669,-1.999806 -1.127337,-5.046032 0.989624,-5.192183 2.152577,-0.148611 6.203001,3.49058 7.494347,3.579387 C 72.951659,77.064344 73.394449,76.605551 75,75 L 25,25 c -2.61879,2.61879 -4.758109,4.635991 -9.800196,1.068421 C 13.231784,24.675932 10.961281,14.363564 9.1824166,13.661128 7.426842,12.967888 7.4320043,20.864965 6.0354994,19.815572 2.8999984,17.459423 5.2983396,9.7455516 3.0258693,9.1481879 0.275901,8.4253043 1.6943836,18.1568 1.0926598,18.788601 c -0.97485282,1.02358 5.3850798,3.32371 10.3554432,7.69416 2.590364,2.277711 5.289998,7.745874 5.338439,8.27909 0.182054,2.004004 1.664384,10.029017 5.010849,11.781362 2.39654,1.254925 -1.515175,-14.356491 8.818679,-2.319999 10.333854,12.036492 -4.113602,1.975704 -3.98664,5.692701 0.06205,1.816689 6.527836,5.727589 4.553605,6.780512 -2.342938,1.249567 -5.464011,-2.778176 -8.169504,-3.658898 C 18.774897,51.657723 13.801694,52.472243 17.008928,50 20.216162,47.527757 16.119341,48.146445 16.252976,42.333333 16.386611,36.520221 9.5504454,47.905298 10.205357,38.364583 10.707006,36.245928 8.3942856,33.589343 6.8493019,34.512705 5.3207911,35.426221 5.6568272,41.766414 4.1050432,39.874016 2.5532592,37.981619 6.0042864,27.868992 5.3185115,24.527495 4.9258273,22.614108 5.3852066,25 0,25 v 25 c 6.7356079,10e-7 13.931848,3.653791 11.717262,12.366069 C 2.8173425,60.639693 2.5072032,66.715895 7.1815475,68.980652 11.855892,71.245409 3.4306399,75 0,75 v 25 z"
           id="path1439"
           sodipodi:nodetypes="czzzzzcszssccsssssssszssszzcszsccczccc" />
        <path
           style="fill:#000000;fill-opacity:1;stroke:#000000;stroke-width:0.264583px;stroke-linecap:butt;stroke-linejoin:miter;stroke-opacity:1"
           d="M 50,100 C 50,95.343146 43.093759,89.173275 37.230653,95.06101 31.367547,100.94874 36.5724,89.985256 34.30134,84.477676 32.03028,78.970096 23.234296,76.889764 20.78869,82.871277 18.343084,88.85279 18.464393,72.562452 21.733631,68.886159 c 3.269238,-3.676293 9.911117,8.056632 7.9375,-0.472469 -0.954814,-4.126285 6.018247,11.586817 5.721231,5.023569 -0.297017,-6.563247 10.73448,6.150788 6.374006,5.087292 -8.418277,-2.053173 -4.081939,15.51046 1.41741,10.67783 5.499349,-4.83263 18.924023,9.675112 21.92262,4.724701 2.998597,-4.950411 18.574341,-13.631287 13.229167,-7.9375 C 72.990391,91.683369 94.578022,94.613644 92.0372,96.00595 89.496378,97.398256 70.306545,93.87476 73.81673,96.58179 77.326915,99.28882 75,98.862565 75,100 H 50"
           id="path1441"
           sodipodi:nodetypes="czzzzszszzzzzcc" />
      </g>
    </g>
  </g>
</svg>
