<?xml version="1.0" encoding="UTF-8" standalone="no"?>
<svg
   xmlns:dc="http://purl.org/dc/elements/1.1/"
   xmlns:cc="http://creativecommons.org/ns#"
   xmlns:rdf="http://www.w3.org/1999/02/22-rdf-syntax-ns#"
   xmlns:svg="http://www.w3.org/2000/svg"
   xmlns="http://www.w3.org/2000/svg"
   xmlns:sodipodi="http://sodipodi.sourceforge.net/DTD/sodipodi-0.dtd"
   xmlns:inkscape="http://www.inkscape.org/namespaces/inkscape"
   width="100mm"
   height="100mm"
   viewBox="0 0 100 100"
   version="1.1"
   id="svg8"
   inkscape:version="1.0.2-2 (e86c870879, 2021-01-15)"
   sodipodi:docname="triangle-tile12.svg">
  <defs
     id="defs2" />
  <sodipodi:namedview
     id="base"
     pagecolor="#ffffff"
     bordercolor="#666666"
     borderopacity="1.0"
     inkscape:pageopacity="0.0"
     inkscape:pageshadow="2"
     inkscape:zoom="1.979899"
     inkscape:cx="84.423854"
     inkscape:cy="212.1933"
     inkscape:document-units="mm"
     inkscape:current-layer="layer14"
     inkscape:document-rotation="0"
     showgrid="false"
     inkscape:snap-midpoints="true"
     inkscape:snap-intersection-paths="true"
     showguides="true"
     inkscape:guide-bbox="true"
     inkscape:window-width="1920"
     inkscape:window-height="1027"
     inkscape:window-x="1912"
     inkscape:window-y="-8"
     inkscape:window-maximized="1" />
  <metadata
     id="metadata5">
    <rdf:RDF>
      <cc:Work
         rdf:about="">
        <dc:format>image/svg+xml</dc:format>
        <dc:type
           rdf:resource="http://purl.org/dc/dcmitype/StillImage" />
        <dc:title />
      </cc:Work>
    </rdf:RDF>
  </metadata>
  <g
     inkscape:groupmode="layer"
     id="layer14"
     inkscape:label="Design 12"
     style="display:inline">
    <g
       id="g129">
      <path
         style="fill:#000000;fill-opacity:1;stroke:#000000;stroke-width:0.264583px;stroke-linecap:butt;stroke-linejoin:miter;stroke-opacity:1"
         d="m 0,50 c 5.2462714,10e-7 16.380288,-7.076316 15.875,-7.666667 C 15.369712,41.742982 8.2433065,46.798165 9.0714284,37.041666 9.8995503,27.285167 15.171083,27.994969 17.197916,32.316965 19.224749,36.638961 12.12962,13.936951 8.8824402,19.087797 5.6352606,24.238643 2.4624966,25 0,25 v 25"
         id="path1513"
         sodipodi:nodetypes="czzzzcc" />
      <path
         style="fill:#000000;fill-opacity:1;stroke:#000000;stroke-width:0.264583px;stroke-linecap:butt;stroke-linejoin:miter;stroke-opacity:1"
         d="M 0,75 C 3.9796876,75 11.84046,67.468528 5.4806548,63.499999 -0.87915056,59.53147 12.670828,48.372327 10.583333,56.50744 c -2.0874948,8.135113 6.509998,20.145448 6.425595,11.717261 -0.0844,-8.428187 12.172719,1.370554 15.119047,-2.078869 2.946328,-3.449423 -7.467221,-9.023204 -2.078868,-9.449405 C 35.43746,56.270226 34.516224,39.665741 29.671131,41.766368 24.826038,43.866995 22.9088,27.0912 25,25 l 50,50 c -3.040821,3.040821 -10.519552,-5.796805 -15.279764,-4.696431 -4.760212,1.100374 -3.740301,5.79059 2.834822,10.205357 6.575123,4.414767 -25.763921,-3.580003 -23.434524,1.889882 2.329397,5.469885 21.163062,14.205966 26.269347,10.583333 C 70.496166,89.359508 75,95.533614 75,100 H 50 c 0,-6.326466 -1.954157,-9.524088 -6.343751,-6.072918 -4.389594,3.45117 -4.721629,-4.09656 -10.205357,-3.96875 -5.483728,0.12781 2.5301,-1.244606 0,-6.236607 C 30.920792,78.729724 32.267682,83.386884 25,84.666666 17.732318,85.946448 25,95.079212 25,100 H 0 V 75"
         id="path1515"
         sodipodi:nodetypes="czzzzzzcczzzzcczzzzccc" />
    </g>
  </g>
</svg>
